<?xml version="1.0" encoding="UTF-8"?>
<!DOCTYPE svg PUBLIC "-//W3C//DTD SVG 1.1//EN" "http://www.w3.org/Graphics/SVG/1.1/DTD/svg11.dtd">
<!-- Creator: CorelDRAW 2019 (64-Bit) -->
<svg xmlns="http://www.w3.org/2000/svg" xml:space="preserve" width="195.438mm" height="190.515mm" version="1.1" style="shape-rendering:geometricPrecision; text-rendering:geometricPrecision; image-rendering:optimizeQuality; fill-rule:evenodd; clip-rule:evenodd"
viewBox="0 0 155.1 151.19"
 xmlns:xlink="http://www.w3.org/1999/xlink"
 xmlns:xodm="http://www.corel.com/coreldraw/odm/2003">
 <defs>
  <style type="text/css">
   <![CDATA[
    .fil0 {fill:#9900CC;fill-rule:nonzero}
   ]]>
  </style>
 </defs>
 <g id="Capa_x0020_1">
  <metadata id="CorelCorpID_0Corel-Layer"/>
  <path class="fil0" d="M42.73 7.92c20.48,-10.08 45.59,-10.55 66.49,-1.32 13.28,5.79 24.81,15.29 32.88,27.07 7.84,11.34 12.31,24.8 13,38.44l0 7.36c-0.81,13.62 -5.3,27.04 -13.19,38.33 -8.36,12.1 -20.37,21.76 -34.17,27.44 -15.42,6.42 -32.95,7.62 -49.22,3.76 5.91,0.65 11.91,0.95 17.8,-0.02 9.19,-1.38 17.9,-5.38 24.96,-11.25 8.84,-7.33 15.38,-17.11 19.34,-27.7 1.79,-4.93 3.14,-10.1 3.08,-15.37 -0.01,-7.02 0,-14.05 -0,-21.08 -0.1,-5.15 0.42,-10.34 1.92,-15.29 -0.28,-0.02 -0.83,-0.08 -1.11,-0.11 5.23,-3.64 10.21,-7.75 14.18,-12.71 2.08,-2.69 4.05,-6.05 3.14,-9.53 -0.7,-3.2 -3.87,-5.42 -7.12,-5.66 -4.39,-0.46 -8.6,1.87 -11.3,5.11 -2.1,-2.44 -4.93,-4.41 -8.2,-4.96 -2.94,-0.56 -6.27,0.08 -8.39,2.23 -1.9,1.85 -2.49,4.72 -1.77,7.2 0.75,2.57 2.37,4.8 4.09,6.83 3.82,4.42 8.44,8.12 13.2,11.54 -5.16,0.03 -10.31,0 -15.46,0.01 -2.93,0.02 -5.9,-0.17 -8.77,0.51 -5.39,1.1 -10.29,4.14 -13.78,8.26 -3.28,3.82 -5.41,8.44 -6.83,13.18 -2,-2.8 -4.21,-5.53 -7.19,-7.39 -3.56,-2.3 -7.77,-3.73 -12.06,-3.88 -19.41,-0.01 -38.83,0 -58.25,-0.01 1.96,-22.07 22.33,-51.18 42.73,-61.01zm66.98 27.98c1.19,-1.44 3.36,-1.57 5.08,-1.14 2.98,0.74 5.21,3.09 6.65,5.64 0.77,1.48 3.28,1.35 3.95,-0.16 1.39,-2.46 3.55,-4.69 6.4,-5.46 1.73,-0.49 3.91,-0.35 5.16,1.06 0.89,1.04 0.75,2.55 0.24,3.72 -0.99,2.24 -2.65,4.12 -4.32,5.9 -2.89,3.01 -6.15,5.66 -9.49,8.19 -3.42,-2.48 -6.67,-5.21 -9.59,-8.24 -1.62,-1.72 -3.2,-3.53 -4.19,-5.66 -0.56,-1.2 -0.78,-2.74 0.11,-3.85zm-15.75 31.22c2.61,-1.57 5.67,-2.43 8.74,-2.41 4.92,-0.01 9.84,0 14.75,-0 -0.7,5.5 -0.36,11.05 -0.44,16.57 -0.05,5.25 0.09,10.51 -0.07,15.76 -0.78,7.38 -3.66,14.42 -7.39,20.83 -3.95,6.66 -9.17,12.68 -15.61,17.18 -7.65,5.42 -17.12,8.24 -26.57,8.1 -12.16,-0.03 -24.09,-4.5 -33.58,-11.81 -5.29,-4.09 -10.05,-8.91 -13.8,-14.39 5.98,3.95 12.83,6.56 19.9,7.97 5.06,0.96 10.3,1.61 15.41,0.67 7.12,-1.26 13.95,-4.55 18.92,-9.72 3.8,-3.93 6.24,-9.06 6.98,-14.4 0.52,-2.25 0.33,-4.56 0.52,-6.85 0.38,-5.96 1.34,-11.98 3.81,-17.49 1.79,-3.99 4.56,-7.71 8.43,-10.01zm11.88 3.1c-1.53,0.48 -2.76,1.78 -3.08,3.32 -0.66,2.55 1.46,5.29 4.15,5.42 2.79,0.29 5.36,-2.31 4.92,-5.01 -0.25,-2.71 -3.36,-4.65 -5.99,-3.72zm-100.52 5.22c17.5,-0.11 35,-0.01 52.51,-0.05 4.91,-0.06 9.69,2.39 12.56,6.24 3.34,4.43 4.42,10.05 4.57,15.43 0.15,5.48 -1.94,11.04 -5.99,14.89 -4.91,4.69 -11.74,7.48 -18.62,7.64 -12.09,-0.28 -24.36,-4.71 -32.82,-13.29 8.04,-0.02 16.08,0.02 24.12,-0.02 1.72,0.02 3.23,-1.5 3.22,-3.16 0.07,-1.71 -1.48,-3.3 -3.25,-3.27 -9.78,-0.06 -19.57,0.06 -29.35,-0.06 -1.63,-2.7 -3.09,-5.51 -4.18,-8.46 10.76,-0 21.52,-0.01 32.27,0 1.41,0.11 3.05,-0.1 3.89,-1.36 1.21,-1.54 0.55,-4 -1.26,-4.79 -1.22,-0.53 -2.6,-0.26 -3.88,-0.32 -10.87,-0.01 -21.74,0.04 -32.61,-0.02 -0.53,-3.12 -0.91,-6.26 -1.17,-9.41z"/>
 </g>
</svg>
